<svg xmlns="http://www.w3.org/2000/svg" width="24" height="24" viewBox="0 0 24 24">
    <g fill="none" fill-rule="evenodd">
        <g>
            <g>
                <g>
                    <g>
                        <path d="M0 0H24V24H0z" transform="translate(-56 -467) translate(32 288) translate(23 14) translate(1 165)"/>
                        <path fill="#56A9FF" fill-rule="nonzero" d="M19 8.117v8.957c0 .679-.552 1.23-1.23 1.23H6.23c-.678 0-1.23-.551-1.23-1.23V8.117l1.475 4.425c.154.46.56.783 1.036.834l.131.007h2.307v.41c0 .227.184.41.41.41h3.282c.226 0 .41-.183.41-.41v-.41h2.307c.53 0 1-.338 1.167-.841L19 8.117zm-5.77 4.445v.82h-2.46v-.82h2.46zM13.64 6c.68 0 1.231.552 1.231 1.23v.41h3.423l-1.547 4.642c-.056.168-.212.28-.389.28h-2.307v-.41c0-.226-.184-.41-.41-.41h-3.282c-.226 0-.41.184-.41.41v.41H7.642c-.177 0-.333-.112-.39-.28L5.707 7.641h3.423v-.41c0-.679.552-1.231 1.23-1.231zm0 .82h-3.28c-.227 0-.41.184-.41.41v.41h4.1v-.41c0-.226-.183-.41-.41-.41z" transform="translate(-56 -467) translate(32 288) translate(23 14) translate(1 165)"/>
                    </g>
                </g>
            </g>
        </g>
    </g>
</svg>
