<svg xmlns="http://www.w3.org/2000/svg" xmlns:xlink="http://www.w3.org/1999/xlink" width="16" height="14" viewBox="0 0 16 14">
    <defs>
        <path id="on2n3jjp6a" d="M7.982 7.082l-5.44 5.44c-.376.376-.984.376-1.356 0l-.904-.904c-.376-.376-.376-.984 0-1.356l3.856-3.856L.282 2.55c-.376-.376-.376-.984 0-1.356l.9-.912c.376-.376.984-.376 1.356 0l5.44 5.44c.38.376.38.984.004 1.36zm7.68-1.36l-5.44-5.44c-.376-.376-.984-.376-1.356 0l-.904.904c-.376.376-.376.984 0 1.356l3.856 3.856-3.856 3.856c-.376.376-.376.984 0 1.356l.904.904c.376.376.984.376 1.356 0l5.44-5.44c.376-.368.376-.976 0-1.352z"/>
    </defs>
    <g fill="none" fill-rule="evenodd">
        <g>
            <g>
                <g>
                    <g transform="translate(-299 -1194) translate(64 461) translate(20 727.787) translate(215.03 5.811)">
                        <use fill="#4A4A4A" xlink:href="#on2n3jjp6a"/>
                    </g>
                </g>
            </g>
        </g>
    </g>
</svg>
