<svg xmlns="http://www.w3.org/2000/svg" width="18" height="18" viewBox="0 0 18 18">
    <g fill="none" fill-rule="evenodd">
        <g>
            <g>
                <g>
                    <g>
                        <path d="M0 0H24V24H0z" transform="translate(-1539 -379) translate(48 300) translate(0 68) translate(1487 8)"/>
                        <path fill-rule="nonzero" stroke="#4A4A4A" d="M20.817 8.596l-4.412-4.413c-.151-.151-.366-.214-.574-.168-.209.045-.378.191-.453.392-.251.678-.313 1.437-.178 2.162l-4.295 3.785c-2.329-.828-4.162.451-4.241.508-.15.107-.244.273-.259.456-.015.183.05.363.18.493l3.029 3.028-4.5 4.5c-.152.152-.152.397 0 .548.075.075.174.113.273.113.099 0 .198-.038.274-.113l4.5-4.501 3.028 3.028c.118.118.276.183.44.183.018 0 .036 0 .053-.002.183-.015.35-.11.457-.26.065-.091.399-.586.612-1.357.264-.956.227-1.947-.105-2.883L18.431 9.8c.725.135 1.485.074 2.162-.179.2-.074.347-.243.392-.451.046-.209-.017-.424-.168-.574z" transform="translate(-1539 -379) translate(48 300) translate(0 68) translate(1487 8)"/>
                    </g>
                </g>
            </g>
        </g>
    </g>
</svg>
