<svg xmlns="http://www.w3.org/2000/svg" width="24" height="24" viewBox="0 0 24 24">
    <g fill="none" fill-rule="evenodd">
        <g>
            <g>
                <g>
                    <g>
                        <path d="M0 0H24V24H0z" transform="translate(-56 -531) translate(32 288) translate(23 14) translate(1 229)"/>
                        <path fill="#56A9FF" fill-rule="nonzero" d="M17.995 13.3c.287-.287.788-.287 1.075 0l.725.725c.296.297.296.779 0 1.075l-3.918 3.917-1.98.54-.132.132c-.05.05-.115.075-.18.075-.064 0-.128-.025-.178-.074l-.005.002c-.096-.105-.095-.264.003-.363l.132-.132.54-1.98zM5.255 9.072l12.727.001c.14 0 .254.114.254.255v3.015c-.294.057-.564.2-.78.417l-4.062 4.06-.733 2.689-7.406-.001c-.141 0-.255-.114-.255-.255l.001-9.926c0-.141.114-.255.255-.255zm9.18 8.767l-.307 1.127 1.127-.307-.82-.82zm2.838-3.097l-2.608 2.607 1.08 1.08 2.608-2.606-1.08-1.08zm-8.455.948H6.782v2.036h2.036V15.69zm2.546 0H9.327v2.037h2.036V15.69zm7.346-2.03c-.095-.095-.26-.095-.355 0l-.722.722 1.08 1.08.722-.722c.098-.098.098-.257 0-.355zm-11.928-.515v2.036h2.036v-2.036H6.783zm4.582 0H9.328v2.036h2.036v-2.036zm5.09-2.544h-2.036v2.036h2.036V10.6zM8.82 10.6H6.782v2.036h2.036V10.6zm.763 0h-.254v2.036h2.036V10.6H9.582zm4.327 0h-2.036v2.036h2.036V10.6zM8.565 5c.14 0 .254.114.254.255v.763h5.6v-.763c0-.14.114-.254.254-.254h1.782c.14 0 .255.114.255.255v.763h1.272c.14 0 .255.114.255.255v2.29H5V6.272c0-.14.114-.255.255-.255h1.272v-.763c0-.141.114-.255.255-.255zm-.255.51H7.037v1.526H8.31V5.51zm7.89 0h-1.272v1.527H16.2V5.51z" transform="translate(-56 -531) translate(32 288) translate(23 14) translate(1 229)"/>
                    </g>
                </g>
            </g>
        </g>
    </g>
</svg>
