<svg xmlns="http://www.w3.org/2000/svg" width="24" height="24" viewBox="0 0 24 24">
    <defs>
        <filter id="yx8funpaka" width="105%" height="103.4%" x="-2.5%" y="-1.6%" filterUnits="objectBoundingBox">
            <feOffset dy="2" in="SourceAlpha" result="shadowOffsetOuter1"/>
            <feGaussianBlur in="shadowOffsetOuter1" result="shadowBlurOuter1" stdDeviation="3.5"/>
            <feColorMatrix in="shadowBlurOuter1" result="shadowMatrixOuter1" values="0 0 0 0 0 0 0 0 0 0 0 0 0 0 0 0 0 0 0.195876755 0"/>
            <feMerge>
                <feMergeNode in="shadowMatrixOuter1"/>
                <feMergeNode in="SourceGraphic"/>
            </feMerge>
        </filter>
    </defs>
    <g fill="none" fill-rule="evenodd">
        <g>
            <g filter="url(#yx8funpaka)" transform="translate(-698 -1452) translate(504 524)">
                <g>
                    <g>
                        <g>
                            <g>
                                <g fill="#BBBDC5" fill-rule="nonzero">
                                    <path d="M12.703 2.297C12.506 2.099 12.271 2 12 2h-1v-.75c0-.344-.122-.638-.367-.883S10.093 0 9.75 0h-.5c-.344 0-.638.122-.883.367S8 .907 8 1.25V2H5v-.75c0-.344-.122-.638-.367-.883S4.093 0 3.75 0h-.5c-.344 0-.638.122-.883.367S2 .907 2 1.25V2H1c-.27 0-.505.099-.703.297C.099 2.495 0 2.729 0 3v10c0 .27.099.505.297.703.198.198.432.297.703.297h11c.27 0 .505-.099.703-.297.198-.198.297-.432.297-.703V3c0-.27-.099-.505-.297-.703zM3.25 13H1v-2.25h2.25V13zm0-2.75H1v-2.5h2.25v2.5zm0-3H1V5h2.25v2.25zm-.176-3.574C3.024 3.626 3 3.568 3 3.5V1.25c0-.068.025-.126.074-.176.05-.05.108-.074.176-.074h.5c.068 0 .126.025.176.074.05.05.074.108.074.176V3.5c0 .068-.025.126-.074.176-.05.05-.108.074-.176.074h-.5c-.068 0-.126-.025-.176-.074zM6.25 13h-2.5v-2.25h2.5V13zm0-2.75h-2.5v-2.5h2.5v2.5zm0-3h-2.5V5h2.5v2.25zm3 5.75h-2.5v-2.25h2.5V13zm0-2.75h-2.5v-2.5h2.5v2.5zm0-3h-2.5V5h2.5v2.25zm-.176-3.574C9.024 3.626 9 3.568 9 3.5V1.25c0-.068.025-.126.074-.176.05-.05.108-.074.176-.074h.5c.068 0 .126.025.176.074.05.05.074.108.074.176V3.5c0 .068-.025.126-.074.176-.05.05-.108.074-.176.074h-.5c-.068 0-.126-.025-.176-.074zM12 13H9.75v-2.25H12V13zm0-2.75H9.75v-2.5H12v2.5zm0-3H9.75V5H12v2.25z" transform="translate(24 671) translate(0 228) translate(0 23) translate(170 6) translate(6 5)"/>
                                </g>
                            </g>
                        </g>
                    </g>
                </g>
            </g>
        </g>
    </g>
</svg>
