<svg xmlns="http://www.w3.org/2000/svg" width="17" height="15" viewBox="0 0 17 15">
    <g fill="none" fill-rule="evenodd">
        <g fill="#56A9FF" fill-rule="nonzero">
            <g>
                <g>
                    <g>
                        <path d="M16.13 12.128c-.026.114-.07.223-.13.324-.457.748-1.017 1.43-1.662 2.026-.192.154-.395.295-.606.423l-.485.031c-.234-.03-.474-.058-.703-.1-1.038-.213-2.033-.595-2.946-1.132-1.567-.873-2.969-1.97-4.312-3.151C4.055 9.49 2.929 8.317 1.924 7.043 1.234 6.144.626 5.2.257 4.117c-.09-.267-.152-.544-.226-.809L0 2.815c.205-.613.62-1.085 1.054-1.54.324-.332.657-.646.996-.958.285-.263.679-.371 1.058-.291.216.032.411.148.543.323.695.922 1.382 1.85 2.102 2.749.302.361.371.864.178 1.294-.088.23-.202.452-.307.677-.123.26-.246.522-.38.778-.06.078-.047.189.029.252.485.496.947 1.015 1.455 1.492.934.91 1.944 1.738 3.02 2.474.095.084.238.084.333 0 .393-.267.793-.525 1.197-.778.281-.199.628-.284.97-.239.104.017.205.052.297.104 1.07.609 2.137 1.22 3.202 1.836.343.194.503.68.383 1.14z" transform="translate(-87 -583) translate(64 461) translate(17 18) translate(2 99) translate(4 5)"/>
                    </g>
                </g>
            </g>
        </g>
    </g>
</svg>
