<svg xmlns="http://www.w3.org/2000/svg" width="14" height="17" viewBox="0 0 14 17">
    <g fill="none" fill-rule="evenodd">
        <g fill="#56A9FF" fill-rule="nonzero">
            <g>
                <g>
                    <path d="M1.877 6.341h6.636c.163 0 .295-.131.295-.294 0-.164-.132-.295-.295-.295H1.877c-.163 0-.296.131-.296.295 0 .163.133.294.296.294zm0-1.66h6.636c.163 0 .295-.132.295-.295 0-.162-.132-.295-.295-.295H1.877c-.163 0-.296.133-.296.295 0 .163.133.296.296.296zm5.358 2.853c0-.162-.132-.294-.295-.294H1.877c-.163 0-.296.132-.296.295 0 .163.133.294.296.294H6.94c.163 0 .295-.131.295-.294zM4.777 8.728h-2.9c-.163 0-.296.132-.296.295 0 .163.133.294.296.294h2.9c.163 0 .295-.131.295-.294 0-.163-.132-.295-.295-.295zm-.974 1.488H1.876c-.162 0-.295.132-.295.294 0 .163.133.296.296.296h1.927c.162 0 .294-.133.294-.296 0-.162-.132-.294-.295-.294zm5.572 4.001c.08 0 .154-.032.207-.086l1.485-1.483c.115-.116.115-.302 0-.418-.058-.057-.134-.086-.21-.086-.074 0-.15.029-.208.086l-.979.98v-2.86c0-.163-.132-.295-.295-.295-.163 0-.295.132-.295.295v2.86l-.98-.979c-.115-.115-.301-.115-.417 0-.114.115-.114.301 0 .417l1.482 1.482c.054.053.128.087.21.087zM10.39 8.15V3.089c0-.078-.031-.153-.086-.208L7.534.087C7.48.031 7.405 0 7.326 0H.295C.132 0 0 .132 0 .295v13.52c0 .163.132.296.295.296h5.47c.7 1.275 2.056 2.141 3.61 2.141 2.271 0 4.118-1.847 4.118-4.117 0-1.919-1.323-3.532-3.103-3.985zm-4.887 5.37H.59V.59h6.44v2.5c0 .162.132.295.295.295H9.8V8.04c-.14-.015-.281-.022-.424-.022-2.27 0-4.118 1.847-4.118 4.117 0 .487.09.952.245 1.385zm3.872-4.912c1.945 0 3.527 1.583 3.527 3.527 0 1.945-1.582 3.527-3.527 3.527s-3.527-1.583-3.527-3.527c0-1.945 1.582-3.527 3.527-3.527z" transform="translate(-1395 -588) translate(64 464) translate(1331 124)"/>
                </g>
            </g>
        </g>
    </g>
</svg>
