<?xml version="1.0" encoding="UTF-8"?>
<svg width="19px" height="23px" viewBox="0 0 19 23" version="1.1" xmlns="http://www.w3.org/2000/svg" xmlns:xlink="http://www.w3.org/1999/xlink">
    <title>group-3</title>
    <g id="Page-1" stroke="none" stroke-width="1" fill="none" fill-rule="evenodd">
        <g id="group-3" transform="translate(0.178000, 0.174000)" fill="#56A9FF" fill-rule="nonzero">
            <path d="M2.454,8.292 L11.132,8.292 C11.345,8.292 11.518,8.12 11.518,7.907 C11.518,7.693 11.345,7.521 11.132,7.521 L2.454,7.521 C2.241,7.521 2.068,7.693 2.068,7.907 C2.068,8.12 2.241,8.292 2.454,8.292 Z M2.454,6.122 L11.132,6.122 C11.345,6.122 11.518,5.949 11.518,5.736 C11.518,5.523 11.345,5.35 11.132,5.35 L2.454,5.35 C2.241,5.35 2.068,5.523 2.068,5.736 C2.068,5.949 2.241,6.122 2.454,6.122 Z M9.461,9.852 C9.461,9.64 9.288,9.467 9.075,9.467 L2.454,9.467 C2.241,9.467 2.068,9.64 2.068,9.853 C2.068,10.066 2.241,10.238 2.454,10.238 L9.075,10.238 C9.288,10.238 9.461,10.066 9.461,9.853 L9.461,9.852 Z M6.247,11.413 L2.454,11.413 C2.241,11.413 2.068,11.586 2.068,11.799 C2.068,12.012 2.241,12.184 2.454,12.184 L6.247,12.184 C6.46,12.184 6.632,12.012 6.632,11.799 C6.632,11.586 6.46,11.413 6.247,11.413 Z M4.973,13.359 L2.453,13.359 C2.241,13.359 2.068,13.531 2.068,13.744 C2.068,13.957 2.241,14.13 2.454,14.13 L4.974,14.13 C5.186,14.13 5.359,13.957 5.359,13.744 C5.359,13.531 5.186,13.359 4.973,13.359 Z M12.259,18.591 C12.365,18.591 12.461,18.549 12.53,18.479 L14.472,16.539 C14.622,16.388 14.622,16.144 14.472,15.993 C14.396,15.918 14.297,15.88 14.198,15.88 C14.1,15.88 14.001,15.918 13.925,15.993 L12.645,17.275 L12.645,13.535 C12.645,13.321 12.472,13.148 12.259,13.148 C12.046,13.148 11.873,13.321 11.873,13.534 L11.873,17.274 L10.593,15.994 C10.442,15.843 10.198,15.843 10.047,15.994 C9.897,16.144 9.897,16.388 10.047,16.539 L11.985,18.477 C12.055,18.547 12.152,18.591 12.259,18.591 Z M13.586,10.657 L13.586,4.039 C13.586,3.937 13.546,3.839 13.474,3.768 L9.853,0.114 C9.78,0.041 9.683,0 9.579,0 L0.386,0 C0.173,0 0,0.173 0,0.386 L0,18.066 C0,18.279 0.173,18.452 0.386,18.452 L7.538,18.452 C8.454,20.119 10.227,21.252 12.26,21.252 C15.229,21.252 17.644,18.837 17.644,15.869 C17.644,13.359 15.914,11.25 13.586,10.657 Z M7.196,17.68 L0.771,17.68 L0.771,0.771 L9.193,0.771 L9.193,4.04 C9.193,4.253 9.366,4.426 9.579,4.426 L12.815,4.426 L12.815,10.515 C12.632,10.495 12.447,10.486 12.26,10.486 C9.291,10.486 6.876,12.901 6.876,15.87 C6.876,16.506 6.993,17.114 7.196,17.681 L7.196,17.68 Z M12.259,11.256 C14.802,11.256 16.872,13.326 16.872,15.868 C16.872,18.412 14.802,20.481 12.259,20.481 C9.716,20.481 7.647,18.411 7.647,15.868 C7.647,13.325 9.716,11.256 12.259,11.256 Z" id="Shape"></path>
        </g>
    </g>
</svg>