<svg xmlns="http://www.w3.org/2000/svg" width="24" height="33" viewBox="0 0 24 33">
    <g fill="none" fill-rule="evenodd">
        <g fill-rule="nonzero">
            <g>
                <g>
                    <g>
                        <g>
                            <path fill="#56A9FF" d="M20.809 29.346c-.199 0-.373-.133-.424-.325-.051-.192.032-.394.204-.493.68-.394.914-1.265.522-1.946l-.944-1.634c-.119-.21-.047-.476.162-.597.209-.12.475-.05.597.158l.944 1.635c.633 1.1.257 2.507-.842 3.143-.067.039-.142.059-.22.059z" transform="translate(-429 -214) translate(0 205) translate(416 1) translate(13 8) translate(1 1)"/>
                            <path stroke="#56A9FF" d="M18.815 25.453c.296-.235.468-.592.47-.97V1.253C19.284.56 18.722 0 18.031 0H6.512L0 6.512v17.971c0 .692.56 1.252 1.252 1.252h15.23l2.333-.282z" transform="translate(-429 -214) translate(0 205) translate(416 1) translate(13 8) translate(1 1)"/>
                            <g fill="#56A9FF">
                                <path d="M5.26 6.512H0L6.512 0v5.26c0 .332-.132.65-.367.885s-.553.367-.885.367z" transform="translate(-429 -214) translate(0 205) translate(416 1) translate(13 8) translate(1 1) translate(1 1)"/>
                                <g>
                                    <path d="M8.199.877H.439C.195.877 0 .68 0 .438S.196 0 .438 0H8.2c.242 0 .438.196.438.438S8.441.877 8.2.877zM8.199 3.218H.439C.195 3.218 0 3.022 0 2.78s.196-.438.438-.438H8.2c.242 0 .438.196.438.438s-.196.438-.438.438z" transform="translate(-429 -214) translate(0 205) translate(416 1) translate(13 8) translate(1 1) translate(1 1) translate(7.58 1.066)"/>
                                </g>
                                <path d="M15.78 6.627H8.019c-.242 0-.438-.197-.438-.439s.196-.438.438-.438h7.76c.243 0 .44.196.44.438s-.197.439-.44.439zM15.78 8.969H1.505c-.242 0-.439-.197-.439-.439s.197-.438.439-.438H15.78c.242 0 .438.196.438.438s-.196.439-.438.439zM15.78 11.31H1.505c-.242 0-.439-.196-.439-.438s.197-.438.439-.438H15.78c.242 0 .438.196.438.438s-.196.438-.438.438zM15.78 13.652H1.505c-.242 0-.439-.196-.439-.438s.197-.439.439-.439H15.78c.242 0 .438.197.438.439s-.196.438-.438.438zM15.78 15.994H1.505c-.242 0-.439-.196-.439-.438s.197-.438.439-.438H15.78c.242 0 .438.196.438.438s-.196.438-.438.438z" transform="translate(-429 -214) translate(0 205) translate(416 1) translate(13 8) translate(1 1) translate(1 1)"/>
                            </g>
                            <path fill="#56A9FF" d="M16.856 20.519h2.16v10.394c0 .415-.336.751-.751.751h-.658c-.415 0-.751-.336-.751-.75V20.518z" transform="translate(-429 -214) translate(0 205) translate(416 1) translate(13 8) translate(1 1) rotate(-30.001 17.936 26.092)"/>
                            <path fill="#56A9FF" d="M13.782 18.897L14.214 21.806 16.085 20.726z" transform="translate(-429 -214) translate(0 205) translate(416 1) translate(13 8) translate(1 1)"/>
                            <path fill="#56A9FF" d="M17.688 27.097L19.849 27.097 19.849 27.974 17.688 27.974z" transform="translate(-429 -214) translate(0 205) translate(416 1) translate(13 8) translate(1 1) rotate(-30.001 18.768 27.536)"/>
                            <path fill="#56A9FF" d="M10.738 20.79c-.02 0-.04-.001-.06-.004-.173-.024-.316-.148-.362-.317l-.405-1.463-1.597 1.025c-.204.131-.475.072-.606-.132-.131-.203-.072-.475.132-.606l2.097-1.346c.117-.075.263-.09.394-.04.13.05.228.158.265.292l.292 1.054.35-.582c.08-.131.223-.212.377-.212s.296.081.375.214l.388.648 1.157-.786c.13-.088.296-.1.437-.032.141.069.235.207.247.363.011.157-.062.307-.192.395l-1.54 1.047c-.1.068-.224.091-.341.065-.118-.026-.22-.1-.282-.203l-.25-.42-.501.83c-.08.13-.222.21-.375.21z" transform="translate(-429 -214) translate(0 205) translate(416 1) translate(13 8) translate(1 1)"/>
                        </g>
                    </g>
                </g>
            </g>
        </g>
    </g>
</svg>
