<svg xmlns="http://www.w3.org/2000/svg" width="16" height="16" viewBox="0 0 16 16">
    <g fill="none" fill-rule="evenodd">
        <g fill="#4A4A4A" fill-rule="nonzero">
            <g>
                <g>
                    <g>
                        <path d="M6.678 8.656c.145.144.226.34.226.544 0 .204-.081.4-.226.544L2.614 13.8H4.6c.423 0 .767.343.767.767 0 .423-.344.766-.767.766H.767c-.424 0-.767-.343-.767-.766v-3.834c0-.423.343-.766.767-.766.423 0 .766.343.766.766v1.986L5.59 8.656c.144-.145.34-.227.544-.227.205 0 .4.082.545.227zM14.567 0h-3.834c-.423 0-.766.343-.766.767 0 .423.343.766.766.766h1.986L8.656 5.59c-.145.144-.227.34-.227.544 0 .205.082.4.227.545.144.145.34.226.544.226.204 0 .4-.081.544-.226L13.8 2.614V4.6c0 .423.343.767.767.767.423 0 .766-.344.766-.767V.767c0-.424-.343-.767-.766-.767z" transform="translate(-1481 -420) translate(48 300) translate(0 108) translate(1433 12)"/>
                    </g>
                </g>
            </g>
        </g>
    </g>
</svg>
