<svg xmlns="http://www.w3.org/2000/svg" width="32" height="32" viewBox="0 0 32 32">
    <g fill="none" fill-rule="evenodd">
        <g fill="#56A9FF">
            <g>
                <g>
                    <g>
                        <path d="M12.759 14.467l.158-1.185c.011-.078.07-.137.148-.147l5.306-.698c.13-.018.229.11.182.232-1.337 3.453-2.721 6.893-3.02 10.588-.027.337.268.606.602.549 1.1-.191 2.002-1.013 2.864-1.95.062-.067.165-.074.236-.015l.658.548c.069.057.082.157.031.23-1.417 2.007-5.991 4.993-7.5 2.523-1.227-2.005.843-6.87 1.69-10.259.026-.108-.054-.212-.165-.213l-1.021-.009c-.105 0-.184-.09-.17-.194zM17.528 5.924c1.289 0 2.334 1.045 2.334 2.335 0 1.288-1.045 2.333-2.334 2.333-1.289 0-2.334-1.045-2.334-2.333 0-1.29 1.045-2.335 2.334-2.335z" transform="translate(-66 -215) translate(0 205) translate(58 2) translate(8 8)"/>
                        <path fill-rule="nonzero" d="M16 0c8.832 0 16 7.168 16 16s-7.168 16-16 16S0 24.832 0 16 7.168 0 16 0zm0 1.817C8.163 1.817 1.817 8.163 1.817 16S8.163 30.183 16 30.183 30.183 23.837 30.183 16 23.837 1.817 16 1.817z" transform="translate(-66 -215) translate(0 205) translate(58 2) translate(8 8)"/>
                    </g>
                </g>
            </g>
        </g>
    </g>
</svg>
