<?xml version="1.0" encoding="UTF-8"?>
<svg width="24px" height="20px" viewBox="0 0 24 20" version="1.1" xmlns="http://www.w3.org/2000/svg" xmlns:xlink="http://www.w3.org/1999/xlink">
    <title>Stroke 3</title>
    <g id="Page-1" stroke="none" stroke-width="1" fill="none" fill-rule="evenodd">
        <path d="M0.423,8.583 L8.583,0.423 C9.147,-0.141 10.059,-0.141 10.617,0.423 L11.973,1.779 C12.537,2.343 12.537,3.255 11.973,3.813 L6.189,9.597 L11.973,15.381 C12.537,15.945 12.537,16.857 11.973,17.415 L10.617,18.771 C10.053,19.335 9.141,19.335 8.583,18.771 L0.423,10.611 C-0.141,10.059 -0.141,9.146 0.423,8.583 Z M11.943,10.623 L20.103,18.783 C20.667,19.347 21.579,19.347 22.137,18.783 L23.493,17.427 C24.057,16.863 24.057,15.951 23.493,15.393 L17.709,9.609 L23.493,3.825 C24.057,3.261 24.057,2.349 23.493,1.791 L22.143,0.423 C21.579,-0.141 20.667,-0.141 20.109,0.423 L11.949,8.583 C11.379,9.146 11.379,10.059 11.943,10.623 Z" id="Stroke-3" fill="#B7B7B7"></path>
    </g>
</svg>