<svg xmlns="http://www.w3.org/2000/svg" width="24" height="24" viewBox="0 0 24 24">
    <g fill="none" fill-rule="evenodd">
        <g>
            <g>
                <g>
                    <g>
                        <g>
                            <path d="M0 0H24V24H0z" transform="translate(-1595 -364) translate(48 288) translate(0 68) translate(1420 8) translate(127)"/>
                            <path fill="#56A9FF" fill-rule="nonzero" d="M18.851 9.734l-3.585-3.585c-.123-.123-.297-.174-.466-.137-.17.037-.307.156-.368.319-.204.55-.254 1.168-.144 1.757l-3.49 3.074c-1.892-.672-3.381.367-3.446.414-.121.086-.198.222-.21.37-.013.149.04.295.146.4l2.46 2.46-3.656 3.657c-.123.123-.123.322 0 .445.061.061.142.092.222.092.08 0 .161-.03.223-.092l3.657-3.657 2.46 2.46c.095.096.224.149.358.149.014 0 .028 0 .042-.002.149-.012.284-.089.372-.211.052-.074.323-.476.496-1.102.215-.777.185-1.583-.084-2.342l3.074-3.49c.59.11 1.207.06 1.758-.146.162-.06.281-.197.318-.366.037-.17-.014-.344-.137-.467z" transform="translate(-1595 -364) translate(48 288) translate(0 68) translate(1420 8) translate(127)"/>
                        </g>
                    </g>
                </g>
            </g>
        </g>
    </g>
</svg>
