<svg xmlns="http://www.w3.org/2000/svg" width="14" height="17" viewBox="0 0 14 17">
    <g fill="none" fill-rule="evenodd">
        <g fill="#56A9FF" fill-rule="nonzero">
            <g>
                <g>
                    <g>
                        <path d="M1.877 6.341h6.636c.163 0 .295-.132.295-.295 0-.163-.132-.294-.295-.294H1.877c-.163 0-.295.131-.295.294 0 .163.132.295.295.295zm0-1.66h6.636c.163 0 .295-.132.295-.295 0-.163-.132-.295-.295-.295H1.877c-.163 0-.295.132-.295.295 0 .163.132.295.295.295zm5.358 2.854c0-.163-.132-.295-.295-.295H1.877c-.163 0-.295.132-.295.295 0 .163.132.295.295.295H6.94c.163 0 .295-.132.295-.295zM4.777 8.728h-2.9c-.163 0-.295.132-.295.295 0 .163.132.295.295.295h2.9c.163 0 .295-.132.295-.295 0-.163-.132-.295-.295-.295zm-.974 1.488H1.877c-.163 0-.295.132-.295.295 0 .163.132.295.295.295h1.926c.163 0 .295-.132.295-.295 0-.163-.132-.295-.295-.295zm5.782-.074c-.053-.054-.127-.087-.21-.087-.08 0-.154.032-.207.085l-.001.001-1.483 1.483c-.115.116-.115.302 0 .417.058.058.133.087.209.087.075 0 .15-.029.208-.087l.98-.98v2.861c0 .163.132.295.295.295.163 0 .295-.132.295-.295v-2.86l.98.98c.114.114.301.114.416 0 .115-.116.115-.303 0-.418l-1.482-1.482zm.805-1.992V3.089c0-.078-.03-.152-.086-.208L7.534.087C7.48.031 7.405 0 7.327 0H.295C.132 0 0 .132 0 .295v13.52c0 .163.132.296.295.296h5.47c.7 1.275 2.056 2.142 3.61 2.142 2.271 0 4.118-1.847 4.118-4.118 0-1.92-1.323-3.532-3.103-3.985zm-4.887 5.37H.59V.59h6.44v2.499c0 .163.133.295.295.295H9.8V8.04c-.14-.014-.281-.022-.424-.022-2.27 0-4.118 1.847-4.118 4.117 0 .487.09.952.245 1.386zm3.873 2.143c-1.945 0-3.528-1.583-3.528-3.528s1.583-3.527 3.528-3.527 3.527 1.582 3.527 3.527-1.582 3.528-3.527 3.528z" transform="translate(-1539 -588) translate(64 464) translate(1331 124) translate(144)"/>
                    </g>
                </g>
            </g>
        </g>
    </g>
</svg>
