<svg xmlns="http://www.w3.org/2000/svg" width="24" height="24" viewBox="0 0 24 24">
    <g fill="none" fill-rule="evenodd">
        <g>
            <g>
                <g>
                    <g>
                        <path d="M0 0H24V24H0z" transform="translate(-1595 -404) translate(48 288) translate(0 108) translate(1547 8)"/>
                        <path fill="#B7B7B7" fill-rule="nonzero" d="M17.863 9.447l-3.31-3.31c-.113-.113-.274-.16-.43-.126-.156.034-.283.144-.34.294-.188.509-.234 1.078-.133 1.622l-3.222 2.838c-1.746-.62-3.12.339-3.18.382-.112.08-.183.205-.194.341-.012.138.038.273.135.37L9.46 14.13l-3.375 3.376c-.113.113-.113.297 0 .41.057.057.13.085.205.085.074 0 .149-.028.205-.085l3.376-3.375 2.271 2.27c.088.089.207.138.33.138.013 0 .026 0 .04-.002.137-.011.261-.082.342-.195.049-.068.3-.439.459-1.017.198-.717.17-1.461-.078-2.162l2.838-3.222c.544.102 1.114.055 1.622-.134.15-.056.26-.183.294-.339.034-.156-.013-.317-.126-.43z" transform="translate(-1595 -404) translate(48 288) translate(0 108) translate(1547 8)"/>
                    </g>
                </g>
            </g>
        </g>
    </g>
</svg>
