<svg xmlns="http://www.w3.org/2000/svg" width="24" height="24" viewBox="0 0 24 24">
    <g fill="none" fill-rule="evenodd">
        <g fill="#56A9FF" fill-rule="nonzero">
            <g>
                <g>
                    <g>
                        <g>
                            <g>
                                <g>
                                    <path d="M16.875 8.45c-.345 0-.625.28-.625.625v6.05c0 .298-.119.585-.33.795-.21.211-.497.33-.795.33H2.375c-.298 0-.585-.119-.795-.33-.211-.21-.33-.497-.33-.795V2.375c0-.621.504-1.125 1.125-1.125h6.35c.345 0 .625-.28.625-.625S9.07 0 8.725 0h-6.35C1.063 0 0 1.063 0 2.375v12.75C0 16.437 1.063 17.5 2.375 17.5h12.75c1.312 0 2.375-1.063 2.375-2.375v-6.05c0-.345-.28-.625-.625-.625z" transform="translate(-1474 -690) translate(528 633) translate(2 1.29) translate(0 55.71) translate(38) translate(906) translate(3 3)"/>
                                    <path d="M5.625 8.75v2.5c0 .345.28.625.625.625h2.5c.166 0 .325-.066.442-.183l8.125-8.125c.244-.244.244-.64 0-.884l-2.5-2.5c-.244-.244-.64-.244-.884 0L5.808 8.308c-.117.117-.183.276-.183.442zm8.75-7.241l1.616 1.616-.991.991L13.384 2.5l.991-.991zm-7.5 7.5L12.5 3.384 14.116 5l-5.625 5.625H6.875V9.009z" transform="translate(-1474 -690) translate(528 633) translate(2 1.29) translate(0 55.71) translate(38) translate(906) translate(3 3)"/>
                                </g>
                            </g>
                        </g>
                    </g>
                </g>
            </g>
        </g>
    </g>
</svg>
