<?xml version="1.0" encoding="UTF-8"?>
<svg width="24px" height="20px" viewBox="0 0 24 20" version="1.1" xmlns="http://www.w3.org/2000/svg" xmlns:xlink="http://www.w3.org/1999/xlink">
    <title>ic_next</title>
    <g id="Page-1" stroke="none" stroke-width="1" fill="none" fill-rule="evenodd">
        <g id="ic_next" fill="#56A9FF" fill-rule="nonzero">
            <path d="M12.018,11.02 L3.858,19.18 C3.294,19.744 2.382,19.744 1.824,19.18 L0.468,17.824 C-0.096,17.26 -0.096,16.348 0.468,15.79 L6.252,10.006 L0.468,4.222 C-0.096,3.658 -0.096,2.746 0.468,2.188 L1.818,0.82 C2.382,0.256 3.294,0.256 3.852,0.82 L12.012,8.98 C12.582,9.544 12.582,10.456 12.018,11.02 Z M23.538,8.98 L15.378,0.82 C14.814,0.256 13.902,0.256 13.344,0.82 L11.988,2.176 C11.424,2.74 11.424,3.652 11.988,4.21 L17.772,9.994 L11.988,15.778 C11.424,16.342 11.424,17.254 11.988,17.812 L13.344,19.168 C13.908,19.732 14.82,19.732 15.378,19.168 L23.538,11.008 C24.102,10.456 24.102,9.544 23.538,8.98 L23.538,8.98 Z" id="Shape"></path>
        </g>
    </g>
</svg>