<?xml version="1.0" encoding="UTF-8"?>
<svg width="17px" height="17px" viewBox="0 0 17 17" version="1.1" xmlns="http://www.w3.org/2000/svg" xmlns:xlink="http://www.w3.org/1999/xlink">
    <!-- Generator: Sketch 63.1 (92452) - https://sketch.com -->
    <title>group-58</title>
    <desc>Created with Sketch.</desc>
    <g id="Page-1" stroke="none" stroke-width="1" fill="none" fill-rule="evenodd">
        <g id="group-58" fill="#4A4A4A" fill-rule="nonzero">
            <path d="M7.926,0.092 C12.353,0.001 15.997,3.499 16.088,7.926 C16.179,12.336 12.681,15.997 8.254,16.088 C3.844,16.179 0.183,12.681 0.092,8.254 C-3.5249581e-15,3.827 3.499,0.183 7.926,0.092 Z M8.18,1.53 L7.944,1.531 C4.319,1.604 1.44,4.611 1.513,8.236 C1.586,11.861 4.592,14.74 8.218,14.667 C11.861,14.594 14.74,11.588 14.648,7.962 C14.576,4.337 11.57,1.458 7.944,1.532 L8.18,1.53 Z M8.965,6.851 C9.092,6.997 9.147,7.234 9.147,7.561 C9.147,7.89 9.056,8.4 8.892,9.092 C8.728,9.784 8.637,10.222 8.637,10.422 C8.637,10.622 8.673,10.732 8.746,10.732 C8.819,10.732 8.965,10.695 9.165,10.622 L9.256,10.586 L9.438,11.133 C9.201,11.333 8.91,11.497 8.564,11.643 C8.218,11.789 7.908,11.861 7.616,11.861 C7.343,11.861 7.106,11.771 6.942,11.606 C6.778,11.442 6.705,11.187 6.705,10.859 C6.705,10.531 6.796,10.039 6.96,9.384 C7.124,8.728 7.215,8.309 7.215,8.126 C7.215,7.853 7.125,7.598 6.942,7.343 L6.852,7.215 L6.888,7.033 C7.252,6.924 7.944,6.851 8.965,6.851 L8.965,6.851 Z M8.509,4.064 C8.819,4.064 9.056,4.136 9.238,4.3 C9.402,4.464 9.493,4.683 9.493,4.956 C9.493,5.23 9.383,5.485 9.183,5.686 C8.946,5.904 8.691,5.995 8.382,5.995 C8.072,5.995 7.817,5.904 7.652,5.721 C7.471,5.539 7.398,5.321 7.398,5.047 C7.398,4.774 7.507,4.537 7.726,4.355 C7.944,4.173 8.199,4.064 8.509,4.064 L8.509,4.064 Z" id="Shape"></path>
        </g>
    </g>
</svg>