<svg xmlns="http://www.w3.org/2000/svg" width="24" height="24" viewBox="0 0 24 24">
    <g fill="none" fill-rule="evenodd">
        <g fill="#FFF" fill-rule="nonzero">
            <g>
                <g>
                    <g>
                        <path d="M.733 20.686h13.919c.412 0 .734-.309.734-.69v-4.513l5.563-5.638c.322-.327.501-.744.52-1.197.017-.453-.144-.87-.448-1.196-.286-.29-.68-.454-1.11-.454-.446 0-.912.2-1.234.526l-7.55 7.669c-.661.67-.769 1.704-.769 2.302l-.769-.09-.16-.798c-.019-.127-.108-.218-.233-.272-.126-.037-.25-.018-.34.054l-.34.29.179-1.178c.018-.163-.072-.327-.215-.38-.161-.073-.322-.019-.43.108l-1.967 2.465c-.126.164-.108.381.053.508.072.054.143.073.233.073.107 0 .215-.055.286-.127L7.8 16.715l-.107.78c-.018.145.053.29.179.363.125.072.286.054.411-.037l.59-.49.09.454c.036.145.161.272.304.29l1.431.163c.018 0 .197.018.448.018.554 0 1.592-.108 2.272-.78l1.27-1.286v3.752H.733.716V.726H14.67V9.59c0 .2.161.362.358.362.197 0 .358-.163.358-.362V.69c0-.381-.322-.69-.734-.69H.733C.322-.016 0 .31 0 .69V19.979c0 .38.322.707.733.707zm14.044-5.62l-1.628 1.65-1.27-1.288 7.049-7.142 1.27 1.287-5.42 5.493zm5.743-7.089c.161.164.25.4.233.653 0 .145-.036.272-.108.399l-1.18-1.197c.143-.072.286-.108.429-.108.25.018.465.108.626.253zm-9.464 9.572c0-.38.036-1.051.34-1.559l1.199 1.215c-.501.326-1.163.362-1.539.344z" transform="translate(-1511 -480) translate(1495 474) translate(16 6) translate(.987 2)"/>
                        <path d="M12.255 5.476H3.13c-.197 0-.358.163-.358.362 0 .2.161.363.358.363h9.124c.197 0 .358-.163.358-.363 0-.2-.161-.362-.358-.362zM12.255 7.434H3.13c-.197 0-.358.163-.358.362 0 .2.161.363.358.363h9.124c.197 0 .358-.163.358-.363 0-.2-.161-.362-.358-.362zM12.255 9.228H3.13c-.197 0-.358.163-.358.363 0 .2.161.362.358.362h9.124c.197 0 .358-.163.358-.362 0-.2-.161-.363-.358-.363zM12.255 11.041H3.13c-.197 0-.358.163-.358.363 0 .2.161.362.358.362h9.124c.197 0 .358-.163.358-.362 0-.2-.161-.363-.358-.363zM12.255 12.745H3.13c-.197 0-.358.163-.358.363 0 .2.161.362.358.362h9.124c.197 0 .358-.163.358-.362 0-.2-.161-.363-.358-.363z" transform="translate(-1511 -480) translate(1495 474) translate(16 6) translate(.987 2)"/>
                    </g>
                </g>
            </g>
        </g>
    </g>
</svg>
