<svg xmlns="http://www.w3.org/2000/svg" width="17" height="17" viewBox="0 0 17 17">
    <g fill="none" fill-rule="evenodd">
        <g fill="#56A9FF" fill-rule="nonzero">
            <g>
                <g>
                    <g>
                        <path d="M8.5 0C3.814 0 0 3.814 0 8.5S3.814 17 8.5 17 17 13.186 17 8.5 13.186 0 8.5 0zm2.527 13.324H5.973c-.381 0-.69-.308-.69-.689 0-.381.309-.69.69-.69h5.054c.381 0 .69.309.69.69 0 .381-.309.69-.69.69zm.843-5.589c-.135.136-.31.202-.487.202s-.354-.066-.487-.202L9.19 6.028v4.328c0 .382-.308.69-.689.69-.381 0-.69-.308-.69-.69V6.028L6.105 7.735c-.269.269-.705.269-.974 0s-.269-.705 0-.974l2.883-2.883c.269-.269.705-.269.974 0L11.87 6.76c.269.269.269.705 0 .974z" transform="translate(-576 -571) translate(302 376) translate(270 192) translate(4 3)"/>
                    </g>
                </g>
            </g>
        </g>
    </g>
</svg>
