<svg xmlns="http://www.w3.org/2000/svg" width="31" height="32" viewBox="0 0 31 32">
    <g fill="none" fill-rule="evenodd">
        <g fill="#56A9FF" fill-rule="nonzero">
            <g>
                <g>
                    <g>
                        <path d="M28.19 0H5.74C4.427 0 3.36 1.067 3.36 2.378v23.615H.493c-.273 0-.493.22-.493.492 0 2.777 2.26 5.037 5.036 5.037H24.2c1.352-.003 2.45-1.103 2.45-2.456V8.606h3.575c.273 0 .493-.221.493-.493V2.526C30.718 1.133 29.585 0 28.192 0h-.002zM5.036 30.537c-2.067 0-3.777-1.557-4.021-3.56h20.724v2.09c0 .55.183 1.06.49 1.47H5.037zm20.63-1.47c0 .81-.66 1.47-1.47 1.47-.812 0-1.472-.66-1.472-1.47v-2.582c0-.272-.22-.492-.492-.492H4.346V2.378c0-.768.625-1.393 1.393-1.393h20.466c-.333.428-.54.958-.54 1.541v26.54zm4.067-26.54V7.62H26.65V2.526c0-.85.69-1.54 1.54-1.54.85 0 1.542.69 1.542 1.54z" transform="translate(-1360 -213) translate(0 205) translate(1351) translate(9 8)"/>
                        <path d="M14.796 12.142c.049.016.099.023.15.023.103 0 .165-.03.218-.044 2.043-.624 3.416-2.478 3.416-4.614V4.556c0-.193-.113-.368-.288-.448L15.15 2.67c-.132-.06-.285-.059-.416.003l-3.021 1.439c-.172.082-.281.255-.281.445v2.988c0 2.111 1.352 3.96 3.364 4.598zm-2.379-7.275l2.532-1.206 2.646 1.21v2.636c0 1.673-1.058 3.129-2.644 3.648-1.522-.549-2.534-1.981-2.534-3.61V4.866z" transform="translate(-1360 -213) translate(0 205) translate(1351) translate(9 8)"/>
                        <path d="M14.253 8.984c.126 0 .252-.048.348-.145l2.192-2.191c.192-.193.192-.504 0-.697-.192-.192-.504-.192-.696 0l-1.844 1.844-.338-.338c-.192-.192-.504-.192-.696 0-.193.193-.193.504 0 .697l.686.685c.096.097.222.145.348.145zM23.43 12.997H6.582c-.272 0-.492.22-.492.492s.22.493.492.493h16.85c.272 0 .492-.22.492-.493 0-.272-.22-.492-.492-.492zM23.43 16.22H6.582c-.272 0-.492.22-.492.493 0 .272.22.493.492.493h16.85c.272 0 .492-.22.492-.493 0-.272-.22-.492-.492-.492zM23.43 19.445H6.582c-.272 0-.492.22-.492.492s.22.493.492.493h16.85c.272 0 .492-.22.492-.493 0-.272-.22-.492-.492-.492zM23.43 22.668H6.582c-.272 0-.492.22-.492.493 0 .272.22.492.492.492h16.85c.272 0 .492-.22.492-.492 0-.273-.22-.493-.492-.493z" transform="translate(-1360 -213) translate(0 205) translate(1351) translate(9 8)"/>
                    </g>
                </g>
            </g>
        </g>
    </g>
</svg>
