<svg xmlns="http://www.w3.org/2000/svg" width="24" height="24" viewBox="0 0 24 24">
    <g fill="none" fill-rule="evenodd">
        <g>
            <g>
                <g>
                    <g>
                        <g>
                            <path d="M0 0H24V24H0z" transform="translate(-56 -632) translate(32 288) translate(23 14) translate(1 294) translate(0 36)"/>
                            <path fill="#56A9FF" fill-rule="nonzero" d="M14.402 13.174c.076-.06.18-.07.266-.024l.013.007c.75.4 2.503 1.337 3.006 1.684.736.507 1.103 1.935 1.28 3.044.007.04.004.081-.01.12-.03.086-.808 2.097-6.472 2.097-5.663 0-6.44-2.011-6.471-2.097-.014-.039-.017-.08-.01-.12.065-.409.435-2.475 1.283-3.046.5-.337 2.276-1.293 3.016-1.689.085-.045.19-.036.266.024.392.308.822.515 1.277.617.08.018.147.075.176.152l.463 1.222.464-1.222c.03-.077.095-.134.176-.152.455-.102.885-.31 1.277-.617zm1.956 3.438h-2.217v.596l1.109.346 1.108-.346v-.596zM12.485 5c3.175 0 3.492 1.907 3.492 4.259 0 3.004-2.45 4.258-3.492 4.258-1.041 0-3.491-1.254-3.491-4.258C8.994 6.907 9.31 5 12.485 5zm-1.053 2.55c-1.14-.025-1.671.523-1.916.998-.01.235-.014.473-.014.71 0 1.47.649 2.38 1.193 2.884.685.636 1.446.867 1.79.867.345 0 1.106-.231 1.791-.867.544-.505 1.193-1.415 1.193-2.883 0-.268-.004-.537-.018-.8-3.338.74-4.019-.91-4.019-.91z" transform="translate(-56 -632) translate(32 288) translate(23 14) translate(1 294) translate(0 36)"/>
                        </g>
                    </g>
                </g>
            </g>
        </g>
    </g>
</svg>
