<svg xmlns="http://www.w3.org/2000/svg" width="40" height="40" viewBox="0 0 40 40">
    <g fill="none" fill-rule="evenodd">
        <g fill-rule="nonzero">
            <g>
                <g>
                    <g>
                        <g>
                            <path fill="#56A9FF" d="M40 20C40 8.978 31.022 0 20 0S0 8.978 0 20c0 6.622 3.244 12.533 8.267 16.178.089.089.177.133.266.178C11.778 38.666 15.733 40 20 40s8.222-1.333 11.467-3.644c.089-.045.177-.134.266-.178C36.756 32.533 40 26.622 40 20z" transform="translate(-63 -362) translate(32 288) translate(23 14) translate(4 56) translate(4 4)"/>
                            <path fill="#FFF" d="M9.778 35.067v-.845C9.778 28.578 14.356 24 20 24c5.644 0 10.222 4.578 10.222 10.222v.845c-2.933 2-6.444 3.155-10.222 3.155-3.778 0-7.289-1.155-10.222-3.155zM14.667 16.889c0-2.933 2.4-5.333 5.333-5.333 2.933 0 5.333 2.4 5.333 5.333 0 2.933-2.4 5.333-5.333 5.333-2.933 0-5.333-2.4-5.333-5.333z" transform="translate(-63 -362) translate(32 288) translate(23 14) translate(4 56) translate(4 4)"/>
                            <path fill="#56A9FF" d="M32 33.689c-.222-5.067-3.556-9.289-8.133-10.845 1.955-1.244 3.244-3.466 3.244-5.955 0-3.911-3.2-7.111-7.111-7.111-3.911 0-7.111 3.2-7.111 7.11 0 2.49 1.289 4.712 3.244 5.956C11.556 24.4 8.223 28.667 8 33.69 4.178 30.356 1.778 25.467 1.778 20 1.778 9.956 9.956 1.778 20 1.778S38.222 9.956 38.222 20c0 5.467-2.4 10.356-6.222 13.689z" transform="translate(-63 -362) translate(32 288) translate(23 14) translate(4 56) translate(4 4)"/>
                        </g>
                    </g>
                </g>
            </g>
        </g>
    </g>
</svg>
