<?xml version="1.0" encoding="UTF-8"?>
<svg width="43px" height="11px" viewBox="0 0 43 11" version="1.1" xmlns="http://www.w3.org/2000/svg" xmlns:xlink="http://www.w3.org/1999/xlink">
    <title>Collabera logo (1)</title>
    <g id="Esign" stroke="none" stroke-width="1" fill="none" fill-rule="evenodd">
        <g id="Take-Action---EAF---Personal" transform="translate(-1338.000000, -455.000000)" fill="#53B7FF" fill-rule="nonzero">
            <g id="Group-77-Copy-4" transform="translate(1322.000000, 384.000000)">
                <g id="Group-49" transform="translate(16.000000, 22.000000)">
                    <g id="Collabera-logo-(1)" transform="translate(0.000000, 49.000000)">
                        <path d="M22.4208153,9.12372712 C22.3857571,9.30760399 22.3557072,9.46500832 22.3256572,9.62455907 C22.3163561,9.67106489 22.3092013,9.71828619 22.2956073,9.76336106 C22.2656278,9.89342651 22.1514347,9.98672346 22.0180033,9.99016639 C21.8855122,9.99780643 21.7526908,9.99780643 21.6201997,9.99016639 C21.4706511,9.9839876 21.3530841,9.86008274 21.3547411,9.71041597 C21.3547411,9.66748752 21.3547411,9.62527454 21.3547411,9.58234609 C21.3547411,6.52965613 21.3547411,3.47696617 21.3547411,0.424276206 C21.3547411,0.386356073 21.3547411,0.34843594 21.3547411,0.310515807 C21.3590516,0.157404326 21.43203,0.0558069884 21.584426,0.030765391 C21.7996497,-0.00607266441 22.0195683,-0.00607266441 22.234792,0.030765391 C22.356719,0.052389006 22.4452821,0.158785691 22.444426,0.282612313 C22.444426,0.329833611 22.444426,0.377770383 22.444426,0.425707155 C22.444426,1.59717693 22.444426,2.76840821 22.444426,3.939401 L22.444426,4.0753411 L22.4658902,4.078203 C22.5245591,3.99520799 22.5810815,3.91078203 22.6411814,3.82921797 C23.0346922,3.29976705 23.5712978,3.07296173 24.2152246,3.13806988 C24.8418085,3.18822305 25.4063793,3.53569215 25.7334609,4.0724792 C25.9997564,4.50049312 26.1662854,4.98296276 26.2206988,5.48410982 C26.2820355,6.02127845 26.298071,6.56265519 26.2686356,7.10251248 C26.2567978,7.63899815 26.1602087,8.17023824 25.9824459,8.67655574 C25.8739212,8.99126304 25.700074,9.2794642 25.4723128,9.52224626 C25.1981735,9.80246474 24.8388615,9.98388209 24.4506156,10.0381032 C24.1656529,10.0838302 23.8747614,10.0775275 23.5920466,10.0195008 C23.197471,9.9396146 22.8469121,9.71534875 22.608985,9.390599 C22.5538935,9.31261231 22.4980865,9.2296173 22.4208153,9.12372712 Z M25.0852413,6.60597338 C25.0852413,6.05505824 25.0559068,5.50843594 24.8863394,4.97826955 C24.8047754,4.72284526 24.6960233,4.4831614 24.4913977,4.29928453 C24.1336606,3.97875208 23.4317804,3.96515807 23.0475707,4.35580699 C22.8608643,4.55201637 22.7207423,4.78775402 22.637604,5.04552413 C22.4480033,5.59071547 22.4229617,6.158802 22.4229617,6.72760399 C22.4213374,6.96909846 22.4349585,7.21045466 22.4637438,7.45023295 C22.4930627,7.75202984 22.5628511,8.04851046 22.6712313,8.33169717 C22.8858735,8.84469218 23.2600666,9.17381032 23.9090017,9.13302829 C24.1536073,9.12174283 24.3852285,9.01970705 24.5586522,8.8468386 C24.7526421,8.64285975 24.8848648,8.38808925 24.94,8.11204659 C25.0504864,7.61819042 25.0995103,7.11257172 25.0859567,6.60668885 L25.0852413,6.60597338 Z" id="Shape"></path>
                        <path d="M39.1908153,9.08652246 C39.1407321,9.09296173 39.1314309,9.12873544 39.1135441,9.15806988 C38.7500832,9.69968386 38.2249251,9.96083195 37.5938769,10.0466889 C37.2980434,10.0920551 36.9960353,10.0759804 36.7066889,9.99946755 C36.1393178,9.84134775 35.7508153,9.48003328 35.5755241,8.9191015 C35.3761877,8.318914 35.4016129,7.66675671 35.6470715,7.08391015 C35.849047,6.58726624 36.2705502,6.21283184 36.7875374,6.07079867 C37.0973905,5.98187212 37.4169563,5.93117409 37.7391181,5.91983361 C38.1791348,5.89765391 38.6184359,5.86617304 39.0577371,5.8397005 C39.1099667,5.8397005 39.1493178,5.83039933 39.1486023,5.76171381 C39.1486023,5.48697171 39.1607654,5.21151414 39.1106822,4.93963394 C39.0284027,4.49317804 38.7794176,4.25349418 38.3236606,4.1833777 C37.900986,4.11688379 37.4691376,4.13831789 37.0551248,4.24633943 L36.6115308,4.36439268 C36.5703799,4.37561103 36.5285603,4.38421392 36.4863228,4.39014975 C36.4204528,4.40528158 36.3512671,4.39345934 36.2941592,4.35731344 C36.2370514,4.32116754 36.1967588,4.26369642 36.1822463,4.19768719 C36.1379923,4.02335636 36.1040675,3.84656525 36.0806489,3.66823627 C36.0683855,3.60540982 36.0820773,3.54029479 36.1186047,3.48772767 C36.1551322,3.43516054 36.2113837,3.39961905 36.2745424,3.38920133 C36.6630143,3.28451617 37.0581507,3.20634943 37.4572213,3.15524126 C37.7823041,3.12032374 38.1101917,3.12032374 38.4352745,3.15524126 C38.8492091,3.18953965 39.2431784,3.3478754 39.5657238,3.60956739 C39.9427787,3.92222962 40.1295175,4.33792013 40.1924792,4.81514143 C40.2371391,5.19166413 40.2562622,5.57077798 40.2497171,5.94988353 C40.2497171,6.74191348 40.2583028,7.53322795 40.2497171,8.3252579 C40.2517007,8.7741156 40.3032896,9.22137903 40.4035441,9.65890183 C40.4134506,9.70017931 40.4189666,9.74238826 40.42,9.78482529 C40.42,9.9121797 40.3584692,9.98301165 40.2318303,9.98587354 C40.0090793,9.99112035 39.7863283,9.99112035 39.5635774,9.98587354 C39.4377376,9.99584095 39.3270554,9.90328774 39.3145923,9.77767055 C39.2709484,9.56302829 39.2387521,9.33980033 39.2008319,9.12014975 C39.1986855,9.11371048 39.1958236,9.10512479 39.1908153,9.08652246 Z M39.145025,7.26921797 C39.145025,7.08891847 39.145025,6.91148087 39.145025,6.72831947 C39.145025,6.66464226 39.1335774,6.63816972 39.0570216,6.64317804 C38.7350582,6.66249584 38.4130948,6.66678869 38.0911314,6.68753744 C37.8398087,6.6959643 37.5910625,6.7410375 37.3527621,6.82133111 C37.031407,6.92834581 36.7831775,7.18647232 36.688802,7.51176373 C36.5909947,7.82571681 36.5781572,8.15998602 36.6515973,8.48051581 C36.7467554,8.89906822 37.0551248,9.1437604 37.4844093,9.16093178 C38.0324626,9.18311148 38.4717637,8.96489185 38.8173378,8.55420965 C39.038656,8.30825933 39.1563249,7.98627225 39.1457404,7.65557404 C39.1400166,7.52821963 39.145025,7.39943428 39.145025,7.27136439 L39.145025,7.26921797 Z" id="Shape"></path>
                        <path d="M19.4151082,9.08652246 C19.3821963,9.09296173 19.3728952,9.12229617 19.3578702,9.14519135 C19.0466389,9.62885191 18.5908819,9.89357737 18.0399667,10.0101997 C17.7107854,10.0863856 17.3689419,10.0898041 17.0383028,10.0202163 C16.4036772,9.87712146 15.9887022,9.49219634 15.798386,8.87545757 C15.6514693,8.39640691 15.6420489,7.88572383 15.771198,7.4015807 C15.9715308,6.62886855 16.4816639,6.17168053 17.2593844,6.00783694 C17.510138,5.9578487 17.7644421,5.92770542 18.0199334,5.91768719 C18.4456406,5.89622296 18.8706323,5.86402662 19.2963394,5.84041597 C19.3728952,5.83612313 19.390782,5.80392679 19.390782,5.73524126 C19.3922807,5.4748099 19.3769855,5.21455288 19.3449917,4.95608985 C19.2834609,4.49246256 18.9872546,4.25492512 18.55797,4.18480865 C18.1357152,4.11503452 17.7034138,4.13650321 17.2901498,4.24777038 C17.1298835,4.29069884 16.9703328,4.33362729 16.8093511,4.37369384 C16.5761065,4.43236273 16.451614,4.35294509 16.4000998,4.11469218 C16.3736273,3.98948419 16.3464393,3.86499168 16.3285524,3.73835275 C16.2970715,3.53229617 16.3621797,3.41996672 16.5646589,3.3734609 C16.9896506,3.27615641 17.4124958,3.16883527 17.8489351,3.14093178 C18.3497671,3.10873544 18.8563228,3.11875208 19.3299667,3.32409318 C19.9617304,3.59668885 20.3194676,4.078203 20.4203494,4.75861897 C20.466476,5.09187345 20.4868082,5.42819146 20.4811647,5.76457571 C20.4811647,6.35698835 20.4811647,6.95011647 20.4811647,7.54252912 C20.4811647,7.94104825 20.4961897,8.33885191 20.4997671,8.73665557 C20.4997671,9.02785358 20.5806156,9.30903494 20.6314143,9.59164725 C20.644618,9.651831 20.654175,9.71275721 20.6600333,9.77409318 C20.6706036,9.82926371 20.6549613,9.88621524 20.6176935,9.92824656 C20.5804258,9.97027789 20.5257563,9.99262533 20.4697171,9.98873544 C20.2472047,9.99445923 20.0239767,9.99445923 19.8014642,9.98873544 C19.6526456,9.9844426 19.5703661,9.89930116 19.5410316,9.73688852 C19.5088353,9.55515807 19.4823627,9.37271215 19.4530283,9.19026622 C19.4458735,9.15306156 19.4530283,9.11227953 19.4151082,9.08652246 Z M19.3893511,7.29783694 C19.3893511,7.08748752 19.3893511,6.91219634 19.3893511,6.73690516 C19.3893511,6.64460899 19.3829118,6.64317804 19.2906156,6.64747088 L18.3826789,6.68682196 C18.1653713,6.69466969 17.9495148,6.72560912 17.7387521,6.77911814 C17.2672546,6.90146423 16.9789185,7.19981697 16.8844759,7.68204659 C16.8551303,7.87398009 16.8462563,8.06848792 16.8580033,8.26229617 C16.8618613,8.38468304 16.8860401,8.50557696 16.9295507,8.62003328 C17.018991,8.8873334 17.2478387,9.08403796 17.5255408,9.13231281 C17.8860929,9.2109668 18.2630811,9.14822079 18.5787188,8.95702163 C19.0080033,8.70589018 19.294193,8.34386023 19.3779035,7.84302829 C19.4108153,7.65557404 19.3836273,7.45667221 19.3893511,7.29783694 Z" id="Shape"></path>
                        <path d="M29.808802,6.8828619 L28.1589185,6.8828619 C28.1260067,6.8828619 28.0923794,6.8828619 28.0594676,6.8828619 C28.0050915,6.8828619 27.9829118,6.9050416 27.9879201,6.95941764 C28.0172546,7.49459235 28.102396,8.01545757 28.4036106,8.47479201 C28.5914909,8.75296419 28.8805567,8.94678719 29.2092346,9.01497504 C29.5339635,9.08525419 29.8681283,9.10097106 30.19802,9.06148087 C30.4941184,9.02593244 30.7863125,8.96318255 31.0708985,8.87402662 C31.0844925,8.87044925 31.0980865,8.86472546 31.1116805,8.86114809 C31.3320466,8.80605657 31.4386522,8.86114809 31.5180699,9.07579035 C31.5538436,9.17381032 31.5896173,9.27039933 31.6239601,9.36985025 C31.6854908,9.56374376 31.6354077,9.67178037 31.4472379,9.75620632 C31.3002636,9.8224728 31.1486592,9.87794948 30.9936273,9.92219634 C30.4847377,10.0587395 29.9552675,10.1016498 29.4310316,10.0488353 C29.0473595,10.0225105 28.6723244,9.92267923 28.3263394,9.75477537 C27.8387113,9.51088726 27.4471511,9.11025618 27.2144925,8.61717138 C27.0131474,8.19288882 26.8886352,7.73626337 26.8467388,7.2685025 C26.8038781,6.87284791 26.7971726,6.47410995 26.8267055,6.07723794 C26.8753577,5.40755408 27.0313311,4.76648918 27.4040932,4.19697171 C27.7618303,3.65392679 28.2483527,3.29189684 28.8965724,3.17455907 C29.4990017,3.06580699 30.0792512,3.13878536 30.6137105,3.44930116 C31.0150915,3.68326123 31.2876872,4.04028286 31.4787188,4.45955075 C31.6869594,4.93341931 31.8081399,5.44092323 31.8364559,5.95775374 C31.8507654,6.15164725 31.8600666,6.34554077 31.8593896,6.53943428 C31.8593896,6.76480865 31.7427288,6.88214642 31.5187854,6.8828619 C30.94736,6.88381586 30.3773655,6.88381586 29.808802,6.8828619 Z M29.3344426,5.97635607 L29.5762729,5.97635607 C29.9125458,5.97635607 30.2495341,5.97635607 30.585807,5.97635607 C30.6938436,5.97635607 30.697421,5.97635607 30.6924126,5.86402662 C30.6874043,5.75169717 30.6766722,5.6565391 30.6630782,5.55279534 C30.6339638,5.25056485 30.5472621,4.95670181 30.4076539,4.68707155 C30.2945322,4.46612633 30.1208086,4.28197927 29.906822,4.15618968 C29.4275073,3.9141684 28.844247,4.04000474 28.5073544,4.4581198 C28.1739434,4.87309484 28.0422962,5.3624792 27.9914975,5.87905158 C27.9821963,5.9727787 27.9914975,5.97635607 28.0973877,5.97635607 C28.5073544,5.97707155 28.920183,5.97635607 29.3344426,5.97635607 Z" id="Shape"></path>
                        <path d="M1.34652246,5.22296173 C1.33202335,5.80045385 1.39092498,6.37744939 1.52181364,6.94009983 C1.63414309,7.39442596 1.79655574,7.82800333 2.09419301,8.19933444 C2.44631867,8.6572316 2.98057625,8.9388598 3.55733777,8.97061564 C4.02382696,9.00638935 4.4581198,8.88547421 4.88382696,8.71876872 C5.08487521,8.64006656 5.17717138,8.669401 5.27304493,8.86186356 C5.35031614,9.01926789 5.42472546,9.17810316 5.49698835,9.33765391 C5.53174408,9.39573033 5.53964649,9.46601212 5.51865564,9.53035663 C5.49766479,9.59470113 5.44983779,9.64680255 5.3875208,9.67321131 C5.30361734,9.71719147 5.21739595,9.75660014 5.12923461,9.79126456 C4.53539101,10.0459734 3.91292845,10.1010649 3.27687188,10.0474043 C2.77358513,10.012756 2.28589067,9.8582049 1.85450915,9.59665557 C1.39997316,9.31045144 1.02572742,8.91330777 0.766988353,8.44259567 C0.470267896,7.89988407 0.27325742,7.30836799 0.18530782,6.69612313 C0.0922477444,6.11456629 0.0555882796,5.52537921 0.0758402662,4.93677205 C0.100881864,4.08893511 0.248269551,3.2625624 0.616738769,2.48770383 C1.05317804,1.57404326 1.72429285,0.913660566 2.718802,0.618169717 C3.19810804,0.484000298 3.69890173,0.444150631 4.19339434,0.500831947 C4.5013166,0.521088259 4.80387661,0.591411711 5.08916805,0.709034942 C5.18036943,0.749656394 5.26817573,0.797507241 5.35174709,0.852129784 C5.50628952,0.952296173 5.5427787,1.08966722 5.45906822,1.25637271 C5.3875208,1.39159734 5.32169717,1.52682196 5.24943428,1.65990017 C5.14211314,1.85737105 5.04695507,1.88956739 4.8437604,1.80299501 C4.67715327,1.72237942 4.50290339,1.65862362 4.32361065,1.61267887 C3.52371048,1.43524126 2.79034942,1.55615641 2.18792013,2.14642263 C1.87740433,2.4469218 1.69996672,2.8297005 1.57905158,3.2403827 C1.47123209,3.62821107 1.40244321,4.02584436 1.37371048,4.42735441 C1.35009983,4.68921797 1.35296173,4.9546589 1.34652246,5.22296173 Z" id="Path"></path>
                        <path d="M10.6033278,6.59524126 C10.6212587,7.1675059 10.5337047,7.73818333 10.3450416,8.27875208 C10.1743798,8.79061029 9.85565604,9.24030957 9.42923461,9.5708985 C9.08790307,9.83026925 8.68362477,9.99400567 8.25800333,10.0452579 C7.88601194,10.0965235 7.50738971,10.0687303 7.14687188,9.96369384 C6.49078203,9.76908486 6.01141431,9.35196339 5.6787188,8.76169717 C5.45114491,8.33970353 5.30548727,7.87845431 5.24943428,7.40229617 C5.19752144,7.03122375 5.1814684,6.65601396 5.2014975,6.28186356 C5.2322629,5.7008985 5.33529118,5.13710483 5.59214642,4.60479201 C5.93271215,3.90434276 6.45787022,3.40708819 7.22485857,3.21391015 C8.39537438,2.91913478 9.56803661,3.37131448 10.1583028,4.49818636 C10.3560674,4.88737441 10.4871484,5.30697885 10.5460899,5.73953411 C10.5891847,6.02265424 10.6083318,6.30890382 10.6033278,6.59524126 Z M9.43638935,6.60168053 C9.43638935,6.39347754 9.43066556,6.18527454 9.41134775,5.97778702 C9.38970475,5.67540004 9.32860991,5.3771418 9.2296173,5.090599 C9.02284526,4.53109817 8.6665391,4.14044925 8.03549085,4.08106489 C7.7169646,4.04301868 7.39557399,4.12349367 7.1325624,4.30715474 C6.85424293,4.50319468 6.68968386,4.78151414 6.57520799,5.09417637 C6.42209651,5.51344426 6.38489185,5.95274542 6.36772047,6.39204659 C6.34923082,6.80872786 6.37634134,7.22618186 6.44856905,7.63697171 C6.49790444,7.9748898 6.61995662,8.29808398 6.80630616,8.58425957 C7.28996672,9.28327787 8.25013311,9.25251248 8.72377704,8.87044925 C8.98575331,8.64861758 9.17372317,8.35205956 9.26252912,8.02046589 C9.40633943,7.55755408 9.4378203,7.08319468 9.43638935,6.60168053 Z" id="Shape"></path>
                        <path d="M11.1463727,4.63698835 C11.1463727,3.23370494 11.1463727,1.83018303 11.1463727,0.426422629 C11.1463727,0.397803661 11.1463727,0.369184692 11.1463727,0.341281198 C11.1506656,0.138801997 11.2551248,0.0214642263 11.457604,0.0100166389 C11.6135774,0.00143094842 11.7709817,0.00286189684 11.9269551,0.0100166389 C12.1415973,0.0186023295 12.2539268,0.148103161 12.2532113,0.356306156 C12.2474875,1.61768719 12.2532113,2.87906822 12.2532113,4.14044925 C12.2532113,5.61051026 12.2532113,7.08033278 12.2532113,8.54991681 C12.247116,8.6826227 12.2608614,8.81549519 12.2939933,8.94414309 C12.3390682,9.0936772 12.3941597,9.13302829 12.5501331,9.13660566 C12.6544505,9.13399634 12.7581379,9.11959531 12.859218,9.0936772 C13.010183,9.06291181 13.1096339,9.11943428 13.1511314,9.26753744 C13.1876206,9.39990017 13.2176705,9.53440932 13.2419967,9.66891847 C13.26653,9.79151622 13.1927049,9.91237762 13.0724293,9.94652246 C12.9704471,9.98498871 12.864685,10.0125684 12.7569052,10.028802 C12.5195201,10.0756632 12.2759097,10.0819531 12.0364226,10.0474043 C11.5506156,9.96512479 11.2400998,9.64673877 11.1735607,9.15950083 C11.1566978,9.03261537 11.1485699,8.9047215 11.1492346,8.77672213 C11.1473267,7.39681087 11.1463727,6.01689961 11.1463727,4.63698835 Z" id="Path"></path>
                        <path d="M13.6176206,4.65058236 C13.6176206,3.25159179 13.6176206,1.85283971 13.6176206,0.454326123 C13.6176206,0.407104825 13.6176206,0.359168053 13.6176206,0.311231281 C13.6112979,0.167298098 13.7147895,0.0418724788 13.8573045,0.0207487521 C13.904242,0.0102224943 13.9523193,0.0056551527 14.0003993,0.0071547421 L14.3094842,0.0071547421 C14.6214309,0.0071547421 14.7201664,0.105174709 14.7201664,0.412828619 C14.7201664,2.61792013 14.7201664,4.82277316 14.7201664,7.02738769 C14.7201664,7.55826955 14.7201664,8.08938991 14.7201664,8.62074875 C14.717215,8.72502339 14.7282846,8.82922196 14.7530782,8.93054908 C14.7952912,9.08437604 14.856822,9.13088186 15.0156572,9.13445923 C15.1150639,9.13281404 15.2139597,9.11985196 15.3104326,9.09582363 C15.48,9.06148087 15.5737271,9.11442596 15.617371,9.28113145 C15.6509983,9.40920133 15.6767554,9.53941764 15.701797,9.66963394 C15.7275602,9.76985929 15.6798731,9.87447288 15.5873211,9.92076539 C15.5671855,9.9335967 15.5455621,9.94392789 15.5229285,9.95153078 C15.1667393,10.0728526 14.785318,10.100449 14.4153744,10.0316639 C14.0032612,9.94366057 13.7249418,9.6402995 13.6455241,9.21459235 C13.6219307,9.06964504 13.6118707,8.92281737 13.6154742,8.77600666 C13.6169052,7.40134221 13.6176206,6.02620078 13.6176206,4.65058236 Z" id="Path"></path>
                        <path d="M33.6895341,4.12470882 C33.7387249,4.07657119 33.7783034,4.01951024 33.8061564,3.95657238 C33.9877242,3.63641773 34.2645757,3.38082405 34.5981864,3.22535774 C34.8514083,3.11024821 35.1389698,3.09592131 35.4023794,3.18529118 C35.4983889,3.21379953 35.5841096,3.26945587 35.649218,3.3455574 C35.7116824,3.41304121 35.7361345,3.50735655 35.7143261,3.59668885 C35.6666278,3.78509706 35.6189296,3.97302829 35.5712313,4.16048253 C35.5623688,4.19251773 35.5511285,4.22384706 35.537604,4.25420965 C35.4703494,4.4108985 35.4166889,4.43951747 35.2514143,4.40302829 C35.1219135,4.37512479 34.9945591,4.33935108 34.8643428,4.31430948 C34.5187687,4.24705491 34.261198,4.38585691 34.0630116,4.65129784 C33.8928557,4.89252324 33.7820524,5.17051208 33.7396173,5.46264559 C33.7007355,5.73485157 33.6849388,6.00985771 33.692396,6.28472546 C33.6866722,7.38512479 33.692396,8.48552413 33.692396,9.58520799 C33.692396,9.63242928 33.692396,9.68036606 33.692396,9.72830283 C33.6870958,9.86757252 33.5768273,9.98000927 33.4376872,9.98801997 C33.2387854,9.99660566 33.0391681,9.99660566 32.8402662,9.98801997 C32.6903805,9.98258578 32.5723894,9.85823397 32.5748253,9.70826955 C32.5748253,9.67535774 32.5748253,9.64173045 32.5748253,9.60881864 C32.5748253,7.60262895 32.5748253,5.59667776 32.5748253,3.59096506 C32.5748253,3.29618968 32.6699834,3.19888519 32.9626123,3.19530782 C33.0477537,3.19530782 33.1336106,3.19530782 33.2180366,3.20103161 C33.3499545,3.20803338 33.4599395,3.30441808 33.484193,3.43427621 C33.5385691,3.64033278 33.5931836,3.84638935 33.6480366,4.05244592 C33.6537604,4.078203 33.6487521,4.10753744 33.6895341,4.12470882 Z" id="Path"></path>
                        <path d="M42.0777537,1.9890183 C41.8355303,1.99016819 41.6029056,1.89440479 41.4316931,1.72305784 C41.2604805,1.55171089 41.1648997,1.31901115 41.1662257,1.07678869 C41.1652517,0.570409734 41.5749522,0.159107664 42.0813311,0.158118018 C42.5877101,0.157131937 42.9990121,0.566832363 43,1.07321131 C43.0029486,1.31811276 42.906519,1.55375404 42.7327293,1.72633028 C42.5589396,1.89890653 42.3226285,1.99368274 42.0777537,1.9890183 Z M41.3250749,1.07321131 C41.3189893,1.27485557 41.3956739,1.47020914 41.5373056,1.61386806 C41.6789374,1.75752699 41.8731815,1.8369799 42.0748918,1.8337604 C42.2768933,1.83877838 42.472355,1.76197764 42.6169097,1.62079091 C42.7614644,1.47960417 42.842851,1.28600703 42.8425957,1.08394343 C42.8528138,0.807516431 42.7118616,0.547412865 42.4746954,0.405045408 C42.2375292,0.262677951 41.9416965,0.260585782 41.7025404,0.399584623 C41.4633844,0.538583464 41.3187674,0.796667447 41.3250749,1.07321131 Z" id="Shape"></path>
                        <path d="M42.3196571,1.15135266 C42.4632132,1.27766001 42.5851442,1.41943786 42.6820865,1.5727752 C42.480149,1.61115216 42.480149,1.61115216 42.3840302,1.47864301 C42.3328845,1.40623364 42.2817387,1.33961702 42.2270657,1.27155221 C42.195951,1.23050401 42.1495733,1.19876878 42.0947922,1.1810405 C41.9440004,1.1346985 41.8813909,1.169455 41.8796273,1.30124005 C41.8796273,1.37364943 41.8796273,1.4460588 41.8796273,1.51846817 C41.8796273,1.5720511 41.8549362,1.59667029 41.7914449,1.59739438 C41.7279536,1.59811848 41.681217,1.5843607 41.6820988,1.51774407 C41.6820988,1.23534753 41.6820988,0.952226885 41.6820988,0.669830336 C41.6820988,0.612626933 41.7164899,0.597420965 41.7799812,0.597420965 C41.9431185,0.597420965 42.1071377,0.597420965 42.270275,0.602489621 C42.4345385,0.596140735 42.5804947,0.687862205 42.6159498,0.819717735 C42.6391072,0.952751636 42.5445887,1.0806905 42.390203,1.12528528 C42.3656602,1.13196257 42.3420202,1.14069779 42.3196571,1.15135266 L42.3196571,1.15135266 Z M42.0877376,0.736446958 L42.0877376,0.736446958 C42.0416489,0.733711814 41.99538,0.733711814 41.9492913,0.736446958 C41.8381816,0.750204739 41.8822727,0.825510485 41.8840364,0.87330067 C41.8858,0.921090855 41.831127,1.01160257 41.9466458,1.02536035 C42.0445952,1.03509142 42.1437143,1.03362932 42.2411749,1.02101579 C42.3324765,1.01771161 42.4055792,0.957684649 42.4096031,0.882713888 C42.4049723,0.802681679 42.3255074,0.739331007 42.2279475,0.737895145 C42.1809567,0.735647993 42.1338465,0.735647993 42.0868558,0.737895145 L42.0877376,0.736446958 Z" id="Shape"></path>
                    </g>
                </g>
            </g>
        </g>
    </g>
</svg>